<?xml version="1.0" encoding="UTF-8" standalone="no"?><!DOCTYPE svg PUBLIC "-//W3C//DTD SVG 1.1//EN" "http://www.w3.org/Graphics/SVG/1.1/DTD/svg11.dtd"><!-- Generated by graphviz version 2.40.1 (20161225.0304)
 --><!-- Title: dependency&#45;graph Pages: 1 --><svg xmlns="http://www.w3.org/2000/svg" xmlns:xlink="http://www.w3.org/1999/xlink" width="1665pt" height="383pt" viewBox="0.00 0.00 1665.03 383.36">
<g id="graph0" class="graph" transform="scale(1 1) rotate(0) translate(4 379.3553)">
<title>dependency-graph</title>
<polygon fill="#ffffff" stroke="transparent" points="-4,4 -4,-379.3553 1661.0339,-379.3553 1661.0339,4 -4,4"/>
<!-- default:chescala&#45;react_sjs1_2.13:0.1.0&#45;SNAPSHOT -->
<g id="node1" class="node">
<title>default:chescala-react_sjs1_2.13:0.1.0-SNAPSHOT</title>
<ellipse fill="none" stroke="#000000" cx="109.9859" cy="-136" rx="109.9719" ry="35.2113"/>
<text text-anchor="start" x="90.5504" y="-145.4" font-family="Times,serif" font-size="14.00" fill="#000000">default</text>
<text text-anchor="start" x="40.2141" y="-131.4" font-family="Times,serif" font-weight="bold" font-size="14.00" fill="#000000">chescala-react_sjs1_2.13</text>
<text text-anchor="start" x="57.4922" y="-117.4" font-family="Times,serif" font-size="14.00" fill="#000000">0.1.0-SNAPSHOT</text>
</g>
<!-- org.scala&#45;lang:scala&#45;library:2.13.2 -->
<g id="node3" class="node">
<title>org.scala-lang:scala-library:2.13.2</title>
<ellipse fill="none" stroke="#000000" cx="354.8972" cy="-259" rx="67.2167" ry="35.2113"/>
<text text-anchor="start" x="315.4445" y="-268.4" font-family="Times,serif" font-size="14.00" fill="#000000">org.scala-lang</text>
<text text-anchor="start" x="319.9189" y="-254.4" font-family="Times,serif" font-weight="bold" font-size="14.00" fill="#000000">scala-library</text>
<text text-anchor="start" x="337.3972" y="-240.4" font-family="Times,serif" font-size="14.00" fill="#000000">2.13.2</text>
</g>
<!-- default:chescala&#45;react_sjs1_2.13:0.1.0&#45;SNAPSHOT&#45;&gt;org.scala&#45;lang:scala&#45;library:2.13.2 -->
<g id="edge2" class="edge">
<title>default:chescala-react_sjs1_2.13:0.1.0-SNAPSHOT-&gt;org.scala-lang:scala-library:2.13.2</title>
<path fill="none" stroke="#000000" d="M165.7846,-166.5739C193.0847,-181.2848 226.5456,-198.9513 256.9719,-214 268.9329,-219.9159 281.8299,-226.0282 294.2129,-231.7683"/>
<polygon fill="#000000" stroke="#000000" points="293.0113,-235.0683 303.5581,-236.0758 295.9416,-228.7111 293.0113,-235.0683"/>
</g>
<!-- org.scala&#45;js:scalajs&#45;library_2.13:1.0.1 -->
<g id="node6" class="node">
<title>org.scala-js:scalajs-library_2.13:1.0.1</title>
<ellipse fill="none" stroke="#000000" cx="1567.3786" cy="-73" rx="89.811" ry="35.2113"/>
<text text-anchor="start" x="1535.3109" y="-82.4" font-family="Times,serif" font-size="14.00" fill="#000000">org.scala-js</text>
<text text-anchor="start" x="1511.9827" y="-68.4" font-family="Times,serif" font-weight="bold" font-size="14.00" fill="#000000">scalajs-library_2.13</text>
<text text-anchor="start" x="1553.3786" y="-54.4" font-family="Times,serif" font-size="14.00" fill="#000000">1.0.1</text>
</g>
<!-- default:chescala&#45;react_sjs1_2.13:0.1.0&#45;SNAPSHOT&#45;&gt;org.scala&#45;js:scalajs&#45;library_2.13:1.0.1 -->
<g id="edge5" class="edge">
<title>default:chescala-react_sjs1_2.13:0.1.0-SNAPSHOT-&gt;org.scala-js:scalajs-library_2.13:1.0.1</title>
<path fill="none" stroke="#000000" d="M144.3791,-102.0323C188.9679,-61.75 271.0016,0 354.8972,0 354.8972,0 354.8972,0 1289.4683,0 1361.5871,0 1440.881,-23.2808 1496.2464,-43.5479"/>
<polygon fill="#000000" stroke="#000000" points="1495.3607,-46.9527 1505.9535,-47.1602 1497.8021,-40.3923 1495.3607,-46.9527"/>
</g>
<!-- me.shadaj:slinky&#45;hot_sjs1_2.13:0.6.5 -->
<g id="node9" class="node">
<title>me.shadaj:slinky-hot_sjs1_2.13:0.6.5</title>
<ellipse fill="none" stroke="#000000" cx="354.8972" cy="-170" rx="94.1708" ry="35.2113"/>
<text text-anchor="start" x="326.7124" y="-179.4" font-family="Times,serif" font-size="14.00" fill="#000000">me.shadaj</text>
<text text-anchor="start" x="296.3688" y="-165.4" font-family="Times,serif" font-weight="bold" font-size="14.00" fill="#000000">slinky-hot_sjs1_2.13</text>
<text text-anchor="start" x="340.8972" y="-151.4" font-family="Times,serif" font-size="14.00" fill="#000000">0.6.5</text>
</g>
<!-- default:chescala&#45;react_sjs1_2.13:0.1.0&#45;SNAPSHOT&#45;&gt;me.shadaj:slinky&#45;hot_sjs1_2.13:0.6.5 -->
<g id="edge14" class="edge">
<title>default:chescala-react_sjs1_2.13:0.1.0-SNAPSHOT-&gt;me.shadaj:slinky-hot_sjs1_2.13:0.6.5</title>
<path fill="none" stroke="#000000" d="M211.0147,-150.0254C226.003,-152.1062 241.4332,-154.2483 256.3693,-156.3218"/>
<polygon fill="#000000" stroke="#000000" points="256.2329,-159.8363 266.6192,-157.7447 257.1955,-152.9028 256.2329,-159.8363"/>
</g>
<!-- me.shadaj:slinky&#45;web_sjs1_2.13:0.6.5 -->
<g id="node11" class="node">
<title>me.shadaj:slinky-web_sjs1_2.13:0.6.5</title>
<ellipse fill="none" stroke="#000000" cx="354.8972" cy="-81" rx="97.8508" ry="35.2113"/>
<text text-anchor="start" x="326.7124" y="-90.4" font-family="Times,serif" font-size="14.00" fill="#000000">me.shadaj</text>
<text text-anchor="start" x="293.6535" y="-76.4" font-family="Times,serif" font-weight="bold" font-size="14.00" fill="#000000">slinky-web_sjs1_2.13</text>
<text text-anchor="start" x="340.8972" y="-62.4" font-family="Times,serif" font-size="14.00" fill="#000000">0.6.5</text>
</g>
<!-- default:chescala&#45;react_sjs1_2.13:0.1.0&#45;SNAPSHOT&#45;&gt;me.shadaj:slinky&#45;web_sjs1_2.13:0.6.5 -->
<g id="edge16" class="edge">
<title>default:chescala-react_sjs1_2.13:0.1.0-SNAPSHOT-&gt;me.shadaj:slinky-web_sjs1_2.13:0.6.5</title>
<path fill="none" stroke="#000000" d="M200.486,-115.6763C220.5101,-111.1795 241.76,-106.4074 261.8824,-101.8885"/>
<polygon fill="#000000" stroke="#000000" points="262.6697,-105.2989 271.6597,-99.6927 261.1358,-98.469 262.6697,-105.2989"/>
</g>
<!-- org.scala&#45;lang:scala&#45;compiler:2.13.2 -->
<g id="node2" class="node">
<title>org.scala-lang:scala-compiler:2.13.2</title>
<ellipse fill="none" stroke="#000000" cx="1289.4683" cy="-239" rx="69.6604" ry="35.2113"/>
<text text-anchor="start" x="1250.0156" y="-248.4" font-family="Times,serif" font-size="14.00" fill="#000000">org.scala-lang</text>
<text text-anchor="start" x="1248.2677" y="-234.4" font-family="Times,serif" font-weight="bold" font-size="14.00" fill="#000000">scala-compiler</text>
<text text-anchor="start" x="1271.9683" y="-220.4" font-family="Times,serif" font-size="14.00" fill="#000000">2.13.2</text>
</g>
<!-- net.java.dev.jna:jna:5.3.1 -->
<g id="node4" class="node">
<title>net.java.dev.jna:jna:5.3.1</title>
<ellipse fill="none" stroke="#000000" cx="1567.3786" cy="-251" rx="73.925" ry="35.2113"/>
<text text-anchor="start" x="1523.2562" y="-260.4" font-family="Times,serif" font-size="14.00" fill="#000000">net.java.dev.jna</text>
<text text-anchor="start" x="1558.826" y="-246.4" font-family="Times,serif" font-weight="bold" font-size="14.00" fill="#000000">jna</text>
<text text-anchor="start" x="1553.3786" y="-232.4" font-family="Times,serif" font-size="14.00" fill="#000000">5.3.1</text>
</g>
<!-- org.scala&#45;lang:scala&#45;compiler:2.13.2&#45;&gt;net.java.dev.jna:jna:5.3.1 -->
<g id="edge3" class="edge">
<title>org.scala-lang:scala-compiler:2.13.2-&gt;net.java.dev.jna:jna:5.3.1</title>
<path fill="none" stroke="#000000" d="M1358.8799,-241.9972C1396.5938,-243.6256 1443.5162,-245.6517 1483.2925,-247.3692"/>
<polygon fill="#000000" stroke="#000000" points="1483.365,-250.8755 1493.5067,-247.8103 1483.667,-243.882 1483.365,-250.8755"/>
</g>
<!-- org.scala&#45;lang:scala&#45;reflect:2.13.2 -->
<g id="node8" class="node">
<title>org.scala-lang:scala-reflect:2.13.2</title>
<ellipse fill="none" stroke="#000000" cx="1567.3786" cy="-340" rx="67.2167" ry="35.2113"/>
<text text-anchor="start" x="1527.9259" y="-349.4" font-family="Times,serif" font-size="14.00" fill="#000000">org.scala-lang</text>
<text text-anchor="start" x="1533.1857" y="-335.4" font-family="Times,serif" font-weight="bold" font-size="14.00" fill="#000000">scala-reflect</text>
<text text-anchor="start" x="1549.8786" y="-321.4" font-family="Times,serif" font-size="14.00" fill="#000000">2.13.2</text>
</g>
<!-- org.scala&#45;lang:scala&#45;compiler:2.13.2&#45;&gt;org.scala&#45;lang:scala&#45;reflect:2.13.2 -->
<g id="edge12" class="edge">
<title>org.scala-lang:scala-compiler:2.13.2-&gt;org.scala-lang:scala-reflect:2.13.2</title>
<path fill="none" stroke="#000000" d="M1351.191,-255.7424C1383.8081,-265.1173 1424.3141,-277.5999 1459.7233,-291 1475.9387,-297.1365 1493.168,-304.5551 1508.9787,-311.7426"/>
<polygon fill="#000000" stroke="#000000" points="1507.5575,-314.9413 1518.1055,-315.9363 1510.4802,-308.5806 1507.5575,-314.9413"/>
</g>
<!-- org.jline:jline:3.14.1 -->
<g id="node10" class="node">
<title>org.jline:jline:3.14.1</title>
<ellipse fill="none" stroke="#000000" cx="1567.3786" cy="-162" rx="44.6621" ry="35.2113"/>
<text text-anchor="start" x="1543.8551" y="-171.4" font-family="Times,serif" font-size="14.00" fill="#000000">org.jline</text>
<text text-anchor="start" x="1554.9354" y="-157.4" font-family="Times,serif" font-weight="bold" font-size="14.00" fill="#000000">jline</text>
<text text-anchor="start" x="1549.8786" y="-143.4" font-family="Times,serif" font-size="14.00" fill="#000000">3.14.1</text>
</g>
<!-- org.scala&#45;lang:scala&#45;compiler:2.13.2&#45;&gt;org.jline:jline:3.14.1 -->
<g id="edge15" class="edge">
<title>org.scala-lang:scala-compiler:2.13.2-&gt;org.jline:jline:3.14.1</title>
<path fill="none" stroke="#000000" d="M1351.4019,-222.5297C1383.7211,-213.8683 1423.8913,-202.9989 1459.7233,-193 1478.0591,-187.8834 1498.1106,-182.1479 1515.8858,-177.0146"/>
<polygon fill="#000000" stroke="#000000" points="1516.8681,-180.374 1525.5013,-174.2325 1514.9225,-173.6498 1516.8681,-180.374"/>
</g>
<!-- org.scala&#45;js:scalajs&#45;dom_sjs1_2.13:0.9.8 -->
<g id="node5" class="node">
<title>org.scala-js:scalajs-dom_sjs1_2.13:0.9.8</title>
<ellipse fill="none" stroke="#000000" cx="805.9793" cy="-50" rx="101.4384" ry="35.2113"/>
<text text-anchor="start" x="773.9116" y="-59.4" font-family="Times,serif" font-size="14.00" fill="#000000">org.scala-js</text>
<text text-anchor="start" x="742.4067" y="-45.4" font-family="Times,serif" font-weight="bold" font-size="14.00" fill="#000000">scalajs-dom_sjs1_2.13</text>
<text text-anchor="start" x="791.9793" y="-31.4" font-family="Times,serif" font-size="14.00" fill="#000000">0.9.8</text>
</g>
<!-- org.scala&#45;js:scalajs&#45;library_2.13:1.0.0 -->
<g id="node7" class="node">
<title>org.scala-js:scalajs-library_2.13:1.0.0</title>
<ellipse fill="none" stroke="#000000" cx="1289.4683" cy="-125" rx="89.811" ry="35.2113"/>
<text text-anchor="start" x="1257.4006" y="-134.4" font-family="Times,serif" font-size="14.00" fill="#000000">org.scala-js</text>
<text text-anchor="start" x="1234.0724" y="-120.4" font-family="Times,serif" font-weight="bold" font-size="14.00" fill="#000000">scalajs-library_2.13</text>
<text text-anchor="start" x="1275.4683" y="-106.4" font-family="Times,serif" font-size="14.00" fill="#000000">1.0.0</text>
</g>
<!-- org.scala&#45;js:scalajs&#45;dom_sjs1_2.13:0.9.8&#45;&gt;org.scala&#45;js:scalajs&#45;library_2.13:1.0.0 -->
<g id="edge10" class="edge">
<title>org.scala-js:scalajs-dom_sjs1_2.13:0.9.8-&gt;org.scala-js:scalajs-library_2.13:1.0.0</title>
<path fill="none" stroke="#000000" d="M907.1657,-52.7925C983.4436,-56.5546 1090.2107,-65.3689 1181.813,-86 1193.5548,-88.6446 1205.7645,-92.2197 1217.5639,-96.1374"/>
<polygon fill="#000000" stroke="#000000" points="1216.765,-99.5635 1227.3596,-99.4959 1219.0353,-92.9418 1216.765,-99.5635"/>
</g>
<!-- org.scala&#45;js:scalajs&#45;library_2.13:1.0.0&#45;&gt;org.scala&#45;js:scalajs&#45;library_2.13:1.0.1 -->
<g id="edge20" class="edge">
<title>org.scala-js:scalajs-library_2.13:1.0.0-&gt;org.scala-js:scalajs-library_2.13:1.0.1</title>
<path fill="none" stroke="#000000" d="M1372.0267,-139.1969C1400.4097,-141.1408 1432.0036,-139.9633 1459.7233,-131 1469.1129,-127.9638 1469.2864,-123.1187 1477.7233,-118 1485.0797,-113.5368 1492.936,-109.1203 1500.8252,-104.8986"/>
<polygon fill="#000000" stroke="#000000" points="1502.4979,-107.9735 1509.7215,-100.2229 1499.2412,-101.7772 1502.4979,-107.9735"/>
<text text-anchor="middle" x="1428.4235" y="-143.2" font-family="Times,serif" font-size="14.00" fill="#000000">Evicted By</text>
</g>
<!-- org.scala&#45;js:scalajs&#45;library_2.13:1.0.0&#45;&gt;org.scala&#45;js:scalajs&#45;library_2.13:1.0.1 -->
<g id="edge21" class="edge">
<title>org.scala-js:scalajs-library_2.13:1.0.0-&gt;org.scala-js:scalajs-library_2.13:1.0.1</title>
<path fill="none" stroke="#000000" d="M1370.5986,-109.8197C1403.6994,-103.6261 1442.1285,-96.4356 1476.1958,-90.0613"/>
<polygon fill="#000000" stroke="#000000" points="1476.9619,-93.4788 1486.1475,-88.1992 1475.6744,-86.5982 1476.9619,-93.4788"/>
<text text-anchor="middle" x="1428.4235" y="-108.2" font-family="Times,serif" font-size="14.00" fill="#000000">Evicted By</text>
</g>
<!-- org.scala&#45;js:scalajs&#45;library_2.13:1.0.0&#45;&gt;org.scala&#45;js:scalajs&#45;library_2.13:1.0.1 -->
<g id="edge22" class="edge">
<title>org.scala-js:scalajs-library_2.13:1.0.0-&gt;org.scala-js:scalajs-library_2.13:1.0.1</title>
<path fill="none" stroke="#000000" d="M1339.8484,-95.7057C1357.388,-87.0241 1377.5779,-78.6524 1397.1237,-74.2 1420.0721,-68.9725 1445.2159,-66.8808 1468.9693,-66.4799"/>
<polygon fill="#000000" stroke="#000000" points="1469.0793,-69.9793 1479.0538,-66.4074 1469.0289,-62.9795 1469.0793,-69.9793"/>
<text text-anchor="middle" x="1428.4235" y="-79.2" font-family="Times,serif" font-size="14.00" fill="#000000">Evicted By</text>
</g>
<!-- org.scala&#45;js:scalajs&#45;library_2.13:1.0.0&#45;&gt;org.scala&#45;js:scalajs&#45;library_2.13:1.0.1 -->
<g id="edge23" class="edge">
<title>org.scala-js:scalajs-library_2.13:1.0.0-&gt;org.scala-js:scalajs-library_2.13:1.0.1</title>
<path fill="none" stroke="#000000" d="M1322.6279,-92.1004C1342.4503,-74.8043 1369.1637,-55.3395 1397.1237,-46.2 1427.4035,-36.3022 1461.9443,-39.2721 1491.965,-46.1189"/>
<polygon fill="#000000" stroke="#000000" points="1491.4134,-49.5874 1501.9599,-48.5764 1493.0848,-42.7899 1491.4134,-49.5874"/>
<text text-anchor="middle" x="1428.4235" y="-51.2" font-family="Times,serif" font-size="14.00" fill="#000000">Evicted By</text>
</g>
<!-- org.scala&#45;js:scalajs&#45;library_2.13:1.0.0&#45;&gt;org.scala&#45;js:scalajs&#45;library_2.13:1.0.1 -->
<g id="edge24" class="edge">
<title>org.scala-js:scalajs-library_2.13:1.0.0-&gt;org.scala-js:scalajs-library_2.13:1.0.1</title>
<path fill="none" stroke="#000000" d="M1340.5508,-154.1974C1376.5017,-170.5178 1424.328,-183.3395 1459.7233,-160 1476.6778,-148.8202 1463.8022,-132.7868 1477.7233,-118 1482.7298,-112.6822 1488.502,-107.899 1494.6547,-103.618"/>
<polygon fill="#000000" stroke="#000000" points="1496.7304,-106.4444 1503.2444,-98.0886 1492.9415,-100.5584 1496.7304,-106.4444"/>
<text text-anchor="middle" x="1428.4235" y="-176.2" font-family="Times,serif" font-size="14.00" fill="#000000">Evicted By</text>
</g>
<!-- me.shadaj:slinky&#45;hot_sjs1_2.13:0.6.5&#45;&gt;org.scala&#45;js:scalajs&#45;library_2.13:1.0.0 -->
<g id="edge7" class="edge">
<title>me.shadaj:slinky-hot_sjs1_2.13:0.6.5-&gt;org.scala-js:scalajs-library_2.13:1.0.0</title>
<path fill="none" stroke="#000000" d="M445.9252,-160.5282C460.5917,-159.2042 475.6181,-157.9678 489.8226,-157 741.3513,-139.8634 1038.06,-130.9428 1189.5291,-127.2007"/>
<polygon fill="#000000" stroke="#000000" points="1189.8263,-130.6945 1199.7377,-126.9509 1189.655,-123.6966 1189.8263,-130.6945"/>
</g>
<!-- me.shadaj:slinky&#45;core_sjs1_2.13:0.6.5 -->
<g id="node12" class="node">
<title>me.shadaj:slinky-core_sjs1_2.13:0.6.5</title>
<ellipse fill="none" stroke="#000000" cx="588.2915" cy="-201" rx="98.4377" ry="35.2113"/>
<text text-anchor="start" x="560.1067" y="-210.4" font-family="Times,serif" font-size="14.00" fill="#000000">me.shadaj</text>
<text text-anchor="start" x="526.6635" y="-196.4" font-family="Times,serif" font-weight="bold" font-size="14.00" fill="#000000">slinky-core_sjs1_2.13</text>
<text text-anchor="start" x="574.2915" y="-182.4" font-family="Times,serif" font-size="14.00" fill="#000000">0.6.5</text>
</g>
<!-- me.shadaj:slinky&#45;hot_sjs1_2.13:0.6.5&#45;&gt;me.shadaj:slinky&#45;core_sjs1_2.13:0.6.5 -->
<g id="edge17" class="edge">
<title>me.shadaj:slinky-hot_sjs1_2.13:0.6.5-&gt;me.shadaj:slinky-core_sjs1_2.13:0.6.5</title>
<path fill="none" stroke="#000000" d="M443.7994,-181.8082C457.4828,-183.6257 471.7075,-185.515 485.66,-187.3682"/>
<polygon fill="#000000" stroke="#000000" points="485.386,-190.8625 495.7598,-188.7097 486.3078,-183.9234 485.386,-190.8625"/>
</g>
<!-- me.shadaj:slinky&#45;web_sjs1_2.13:0.6.5&#45;&gt;org.scala&#45;js:scalajs&#45;dom_sjs1_2.13:0.9.8 -->
<g id="edge4" class="edge">
<title>me.shadaj:slinky-web_sjs1_2.13:0.6.5-&gt;org.scala-js:scalajs-dom_sjs1_2.13:0.9.8</title>
<path fill="none" stroke="#000000" d="M451.1124,-74.3877C522.9015,-69.4541 621.093,-62.7061 695.9914,-57.5588"/>
<polygon fill="#000000" stroke="#000000" points="696.6636,-61.0209 706.4001,-56.8434 696.1836,-54.0374 696.6636,-61.0209"/>
</g>
<!-- me.shadaj:slinky&#45;web_sjs1_2.13:0.6.5&#45;&gt;org.scala&#45;js:scalajs&#45;library_2.13:1.0.0 -->
<g id="edge9" class="edge">
<title>me.shadaj:slinky-web_sjs1_2.13:0.6.5-&gt;org.scala-js:scalajs-library_2.13:1.0.0</title>
<path fill="none" stroke="#000000" d="M452.2679,-85.5843C631.1004,-94.0038 1010.0173,-111.8433 1190.2315,-120.3279"/>
<polygon fill="#000000" stroke="#000000" points="1190.0833,-123.8247 1200.2369,-120.7989 1190.4126,-116.8324 1190.0833,-123.8247"/>
</g>
<!-- me.shadaj:slinky&#45;web_sjs1_2.13:0.6.5&#45;&gt;me.shadaj:slinky&#45;core_sjs1_2.13:0.6.5 -->
<g id="edge18" class="edge">
<title>me.shadaj:slinky-web_sjs1_2.13:0.6.5-&gt;me.shadaj:slinky-core_sjs1_2.13:0.6.5</title>
<path fill="none" stroke="#000000" d="M416.6129,-108.5076C428.6976,-114.1333 441.2185,-120.1319 452.8226,-126 477.3897,-138.4233 503.9795,-152.9089 527.0427,-165.8188"/>
<polygon fill="#000000" stroke="#000000" points="525.5952,-169.0201 536.0277,-170.8681 529.0246,-162.9177 525.5952,-169.0201"/>
</g>
<!-- me.shadaj:slinky&#45;core_sjs1_2.13:0.6.5&#45;&gt;org.scala&#45;js:scalajs&#45;library_2.13:1.0.0 -->
<g id="edge6" class="edge">
<title>me.shadaj:slinky-core_sjs1_2.13:0.6.5-&gt;org.scala-js:scalajs-library_2.13:1.0.0</title>
<path fill="none" stroke="#000000" d="M686.567,-197.8006C804.779,-192.8228 1008.9157,-180.6213 1181.813,-152 1189.6518,-150.7024 1197.7584,-149.1223 1205.8431,-147.3844"/>
<polygon fill="#000000" stroke="#000000" points="1206.6746,-150.785 1215.6744,-145.1946 1205.1527,-143.9525 1206.6746,-150.785"/>
</g>
<!-- me.shadaj:slinky&#45;core_sjs1_2.13:0.6.5&#45;&gt;org.scala&#45;lang:scala&#45;reflect:2.13.2 -->
<g id="edge11" class="edge">
<title>me.shadaj:slinky-core_sjs1_2.13:0.6.5-&gt;org.scala-lang:scala-reflect:2.13.2</title>
<path fill="none" stroke="#000000" d="M667.1407,-222.3613C679.7066,-225.6576 692.5769,-228.9701 704.7604,-232 802.3481,-256.2692 825.9952,-266.534 925.1982,-283 1046.2262,-303.0886 1077.6276,-299.9523 1199.813,-311 1300.1258,-320.07 1415.9871,-328.9462 1490.3863,-334.4403"/>
<polygon fill="#000000" stroke="#000000" points="1490.3731,-337.9487 1500.6032,-335.1928 1490.8874,-330.9676 1490.3731,-337.9487"/>
</g>
<!-- me.shadaj:slinky&#45;readwrite_sjs1_2.13:0.6.5 -->
<g id="node13" class="node">
<title>me.shadaj:slinky-readwrite_sjs1_2.13:0.6.5</title>
<ellipse fill="none" stroke="#000000" cx="1044.0056" cy="-239" rx="118.6151" ry="35.2113"/>
<text text-anchor="start" x="1015.8208" y="-248.4" font-family="Times,serif" font-size="14.00" fill="#000000">me.shadaj</text>
<text text-anchor="start" x="967.9961" y="-234.4" font-family="Times,serif" font-weight="bold" font-size="14.00" fill="#000000">slinky-readwrite_sjs1_2.13</text>
<text text-anchor="start" x="1030.0056" y="-220.4" font-family="Times,serif" font-size="14.00" fill="#000000">0.6.5</text>
</g>
<!-- me.shadaj:slinky&#45;core_sjs1_2.13:0.6.5&#45;&gt;me.shadaj:slinky&#45;readwrite_sjs1_2.13:0.6.5 -->
<g id="edge19" class="edge">
<title>me.shadaj:slinky-core_sjs1_2.13:0.6.5-&gt;me.shadaj:slinky-readwrite_sjs1_2.13:0.6.5</title>
<path fill="none" stroke="#000000" d="M684.3799,-209.0124C752.7168,-214.7107 845.146,-222.418 919.1873,-228.5919"/>
<polygon fill="#000000" stroke="#000000" points="919.2521,-232.1094 929.5084,-229.4526 919.8338,-225.1336 919.2521,-232.1094"/>
</g>
<!-- me.shadaj:slinky&#45;readwrite_sjs1_2.13:0.6.5&#45;&gt;org.scala&#45;lang:scala&#45;compiler:2.13.2 -->
<g id="edge1" class="edge">
<title>me.shadaj:slinky-readwrite_sjs1_2.13:0.6.5-&gt;org.scala-lang:scala-compiler:2.13.2</title>
<path fill="none" stroke="#000000" d="M1163.1418,-239C1178.9219,-239 1194.7814,-239 1209.6755,-239"/>
<polygon fill="#000000" stroke="#000000" points="1209.8198,-242.5001 1219.8197,-239 1209.8197,-235.5001 1209.8198,-242.5001"/>
</g>
<!-- me.shadaj:slinky&#45;readwrite_sjs1_2.13:0.6.5&#45;&gt;org.scala&#45;js:scalajs&#45;library_2.13:1.0.0 -->
<g id="edge8" class="edge">
<title>me.shadaj:slinky-readwrite_sjs1_2.13:0.6.5-&gt;org.scala-js:scalajs-library_2.13:1.0.0</title>
<path fill="none" stroke="#000000" d="M1125.2686,-213.1729C1144.1288,-206.3404 1163.9139,-198.4793 1181.813,-190 1199.707,-181.5231 1218.4337,-170.8946 1235.1573,-160.7029"/>
<polygon fill="#000000" stroke="#000000" points="1237.0339,-163.6577 1243.705,-155.4268 1233.3571,-157.701 1237.0339,-163.6577"/>
</g>
<!-- me.shadaj:slinky&#45;readwrite_sjs1_2.13:0.6.5&#45;&gt;org.scala&#45;lang:scala&#45;reflect:2.13.2 -->
<g id="edge13" class="edge">
<title>me.shadaj:slinky-readwrite_sjs1_2.13:0.6.5-&gt;org.scala-lang:scala-reflect:2.13.2</title>
<path fill="none" stroke="#000000" d="M1126.8211,-264.4021C1150.2717,-271.0445 1175.9198,-277.7938 1199.813,-283 1254.0912,-294.8269 1401.4338,-316.5025 1492.2326,-329.4468"/>
<polygon fill="#000000" stroke="#000000" points="1491.8043,-332.921 1502.1977,-330.8647 1492.7905,-325.9908 1491.8043,-332.921"/>
</g>
</g>
</svg>